<svg xmlns="http://www.w3.org/2000/svg" x="0px" y="0px" width="100" height="100" viewBox="0 0 24 24">
    <defs>
        <linearGradient id="grad1" x1="0%" y1="0%" x2="100%" y2="100%">
            <stop offset="0%" style="stop-color:#4285F4;stop-opacity:1" />
            <stop offset="25%" style="stop-color:#DB4437;stop-opacity:1" />
            <stop offset="50%" style="stop-color:#F4B400;stop-opacity:1" />
            <stop offset="75%" style="stop-color:#0F9D58;stop-opacity:1" />
        </linearGradient>
    </defs>
    <path d="M17,21h3c1.65,0,3-1.35,3-3V9.92l-6,4.68V21z" fill="url(#grad1)"/>
    <path d="M19.5,3c-0.79,0-1.54,0.26-2.16,0.74L17,4.01v8.06l6-4.69V6.5	C23,4.57,21.43,3,19.5,3z" fill="#4285F4"/>
    <path d="M9,5.57v8.06l3,2.34l3-2.34V5.57l-3,2.34L9,5.57z" fill="#DB4437"/>
    <path d="M1,18c0,1.65,1.35,3,3,3h3v-6.4L1,9.92V18z" fill="#F4B400"/>
    <path d="M4.5,3	C2.57,3,1,4.57,1,6.5v0.88l6,4.69V4.01L6.66,3.74C6.04,3.26,5.29,3,4.5,3z" fill="#0F9D58"/>
</svg>
